<mxfile host="app.diagrams.net" modified="2023-05-25T10:36:09.689Z" agent="Mozilla/5.0 (Windows NT 10.0; Win64; x64) AppleWebKit/537.36 (KHTML, like Gecko) Chrome/113.0.0.0 Safari/537.36 Edg/113.0.1774.50" etag="PEZtvTQWJqkwxI4PkECg" version="21.3.3" type="device">
  <diagram name="Page-1" id="2YBvvXClWsGukQMizWep">
    <mxGraphModel dx="2284" dy="834" grid="1" gridSize="10" guides="1" tooltips="1" connect="1" arrows="1" fold="1" page="1" pageScale="1" pageWidth="850" pageHeight="1100" math="0" shadow="0">
      <root>
        <mxCell id="0" />
        <mxCell id="1" parent="0" />
        <mxCell id="aM9ryv3xv72pqoxQDRHE-1" value="Client" style="shape=umlLifeline;perimeter=lifelinePerimeter;whiteSpace=wrap;html=1;container=0;dropTarget=0;collapsible=0;recursiveResize=0;outlineConnect=0;portConstraint=eastwest;newEdgeStyle={&quot;edgeStyle&quot;:&quot;elbowEdgeStyle&quot;,&quot;elbow&quot;:&quot;vertical&quot;,&quot;curved&quot;:0,&quot;rounded&quot;:0};" parent="1" vertex="1">
          <mxGeometry x="40" y="40" width="100" height="300" as="geometry" />
        </mxCell>
        <mxCell id="aM9ryv3xv72pqoxQDRHE-2" value="" style="html=1;points=[];perimeter=orthogonalPerimeter;outlineConnect=0;targetShapes=umlLifeline;portConstraint=eastwest;newEdgeStyle={&quot;edgeStyle&quot;:&quot;elbowEdgeStyle&quot;,&quot;elbow&quot;:&quot;vertical&quot;,&quot;curved&quot;:0,&quot;rounded&quot;:0};" parent="aM9ryv3xv72pqoxQDRHE-1" vertex="1">
          <mxGeometry x="45" y="70" width="10" height="190" as="geometry" />
        </mxCell>
        <mxCell id="aM9ryv3xv72pqoxQDRHE-4" value="" style="html=1;points=[];perimeter=orthogonalPerimeter;outlineConnect=0;targetShapes=umlLifeline;portConstraint=eastwest;newEdgeStyle={&quot;edgeStyle&quot;:&quot;elbowEdgeStyle&quot;,&quot;elbow&quot;:&quot;vertical&quot;,&quot;curved&quot;:0,&quot;rounded&quot;:0};" parent="aM9ryv3xv72pqoxQDRHE-1" vertex="1">
          <mxGeometry x="50" y="120" width="10" height="80" as="geometry" />
        </mxCell>
        <mxCell id="aM9ryv3xv72pqoxQDRHE-5" value="serveur/API" style="shape=umlLifeline;perimeter=lifelinePerimeter;whiteSpace=wrap;html=1;container=0;dropTarget=0;collapsible=0;recursiveResize=0;outlineConnect=0;portConstraint=eastwest;newEdgeStyle={&quot;edgeStyle&quot;:&quot;elbowEdgeStyle&quot;,&quot;elbow&quot;:&quot;vertical&quot;,&quot;curved&quot;:0,&quot;rounded&quot;:0};" parent="1" vertex="1">
          <mxGeometry x="375" y="40" width="100" height="300" as="geometry" />
        </mxCell>
        <mxCell id="aM9ryv3xv72pqoxQDRHE-6" value="" style="html=1;points=[];perimeter=orthogonalPerimeter;outlineConnect=0;targetShapes=umlLifeline;portConstraint=eastwest;newEdgeStyle={&quot;edgeStyle&quot;:&quot;elbowEdgeStyle&quot;,&quot;elbow&quot;:&quot;vertical&quot;,&quot;curved&quot;:0,&quot;rounded&quot;:0};" parent="aM9ryv3xv72pqoxQDRHE-5" vertex="1">
          <mxGeometry x="45" y="80" width="10" height="170" as="geometry" />
        </mxCell>
        <mxCell id="aM9ryv3xv72pqoxQDRHE-7" value="Requête HTTP&amp;nbsp;" style="html=1;verticalAlign=bottom;endArrow=block;edgeStyle=elbowEdgeStyle;elbow=vertical;curved=0;rounded=0;" parent="1" source="aM9ryv3xv72pqoxQDRHE-2" target="aM9ryv3xv72pqoxQDRHE-6" edge="1">
          <mxGeometry relative="1" as="geometry">
            <mxPoint x="195" y="130" as="sourcePoint" />
            <Array as="points">
              <mxPoint x="180" y="120" />
            </Array>
          </mxGeometry>
        </mxCell>
        <mxCell id="aM9ryv3xv72pqoxQDRHE-9" value="Réponse HTTP" style="html=1;verticalAlign=bottom;endArrow=block;edgeStyle=elbowEdgeStyle;elbow=vertical;curved=0;rounded=0;" parent="1" source="aM9ryv3xv72pqoxQDRHE-6" target="aM9ryv3xv72pqoxQDRHE-4" edge="1">
          <mxGeometry relative="1" as="geometry">
            <mxPoint x="175" y="160" as="sourcePoint" />
            <Array as="points">
              <mxPoint x="190" y="180" />
            </Array>
          </mxGeometry>
        </mxCell>
        <mxCell id="F8OSvD6U9JMB6-py82-F-1" value="Base de données" style="shape=umlLifeline;perimeter=lifelinePerimeter;whiteSpace=wrap;html=1;container=0;dropTarget=0;collapsible=0;recursiveResize=0;outlineConnect=0;portConstraint=eastwest;newEdgeStyle={&quot;edgeStyle&quot;:&quot;elbowEdgeStyle&quot;,&quot;elbow&quot;:&quot;vertical&quot;,&quot;curved&quot;:0,&quot;rounded&quot;:0};" vertex="1" parent="1">
          <mxGeometry x="640" y="40" width="100" height="300" as="geometry" />
        </mxCell>
        <mxCell id="F8OSvD6U9JMB6-py82-F-2" value="" style="html=1;points=[];perimeter=orthogonalPerimeter;outlineConnect=0;targetShapes=umlLifeline;portConstraint=eastwest;newEdgeStyle={&quot;edgeStyle&quot;:&quot;elbowEdgeStyle&quot;,&quot;elbow&quot;:&quot;vertical&quot;,&quot;curved&quot;:0,&quot;rounded&quot;:0};" vertex="1" parent="F8OSvD6U9JMB6-py82-F-1">
          <mxGeometry x="45" y="80" width="10" height="170" as="geometry" />
        </mxCell>
        <mxCell id="F8OSvD6U9JMB6-py82-F-7" value="" style="html=1;verticalAlign=bottom;endArrow=block;edgeStyle=elbowEdgeStyle;elbow=vertical;curved=0;rounded=0;" edge="1" parent="1">
          <mxGeometry relative="1" as="geometry">
            <mxPoint x="85" y="122" as="sourcePoint" />
            <Array as="points">
              <mxPoint x="-50" y="122" />
              <mxPoint x="-60" y="82" />
              <mxPoint x="180" y="102" />
            </Array>
            <mxPoint x="80" y="122" as="targetPoint" />
          </mxGeometry>
        </mxCell>
        <mxCell id="F8OSvD6U9JMB6-py82-F-9" value="&lt;font style=&quot;font-size: 11px;&quot;&gt;Création utilisateur&lt;/font&gt;" style="text;html=1;align=center;verticalAlign=middle;resizable=0;points=[];autosize=1;strokeColor=none;fillColor=none;" vertex="1" parent="1">
          <mxGeometry x="-50" y="100" width="120" height="30" as="geometry" />
        </mxCell>
        <mxCell id="F8OSvD6U9JMB6-py82-F-10" value="Actor" style="shape=umlActor;verticalLabelPosition=bottom;verticalAlign=top;html=1;outlineConnect=0;" vertex="1" parent="1">
          <mxGeometry x="-80" y="30" width="30" height="60" as="geometry" />
        </mxCell>
        <mxCell id="F8OSvD6U9JMB6-py82-F-13" value="" style="rounded=0;whiteSpace=wrap;html=1;" vertex="1" parent="1">
          <mxGeometry x="-70" y="110" width="10" height="180" as="geometry" />
        </mxCell>
        <mxCell id="F8OSvD6U9JMB6-py82-F-15" value="&lt;font style=&quot;font-size: 11px;&quot;&gt;Ecriture données utilisateur&lt;/font&gt;" style="text;html=1;align=center;verticalAlign=middle;resizable=0;points=[];autosize=1;strokeColor=none;fillColor=none;" vertex="1" parent="1">
          <mxGeometry x="470" y="116" width="160" height="30" as="geometry" />
        </mxCell>
        <mxCell id="F8OSvD6U9JMB6-py82-F-18" value="" style="endArrow=classic;startArrow=classic;html=1;rounded=0;" edge="1" parent="1" source="aM9ryv3xv72pqoxQDRHE-5" target="F8OSvD6U9JMB6-py82-F-1">
          <mxGeometry width="50" height="50" relative="1" as="geometry">
            <mxPoint x="540" y="220" as="sourcePoint" />
            <mxPoint x="590" y="170" as="targetPoint" />
            <Array as="points">
              <mxPoint x="520" y="150" />
            </Array>
          </mxGeometry>
        </mxCell>
        <mxCell id="F8OSvD6U9JMB6-py82-F-19" value="Client" style="shape=umlLifeline;perimeter=lifelinePerimeter;whiteSpace=wrap;html=1;container=0;dropTarget=0;collapsible=0;recursiveResize=0;outlineConnect=0;portConstraint=eastwest;newEdgeStyle={&quot;edgeStyle&quot;:&quot;elbowEdgeStyle&quot;,&quot;elbow&quot;:&quot;vertical&quot;,&quot;curved&quot;:0,&quot;rounded&quot;:0};" vertex="1" parent="1">
          <mxGeometry x="40" y="420" width="100" height="300" as="geometry" />
        </mxCell>
        <mxCell id="F8OSvD6U9JMB6-py82-F-20" value="" style="html=1;points=[];perimeter=orthogonalPerimeter;outlineConnect=0;targetShapes=umlLifeline;portConstraint=eastwest;newEdgeStyle={&quot;edgeStyle&quot;:&quot;elbowEdgeStyle&quot;,&quot;elbow&quot;:&quot;vertical&quot;,&quot;curved&quot;:0,&quot;rounded&quot;:0};" vertex="1" parent="F8OSvD6U9JMB6-py82-F-19">
          <mxGeometry x="45" y="70" width="10" height="190" as="geometry" />
        </mxCell>
        <mxCell id="F8OSvD6U9JMB6-py82-F-21" value="" style="html=1;points=[];perimeter=orthogonalPerimeter;outlineConnect=0;targetShapes=umlLifeline;portConstraint=eastwest;newEdgeStyle={&quot;edgeStyle&quot;:&quot;elbowEdgeStyle&quot;,&quot;elbow&quot;:&quot;vertical&quot;,&quot;curved&quot;:0,&quot;rounded&quot;:0};" vertex="1" parent="F8OSvD6U9JMB6-py82-F-19">
          <mxGeometry x="50" y="120" width="10" height="80" as="geometry" />
        </mxCell>
        <mxCell id="F8OSvD6U9JMB6-py82-F-22" value="serveur/API" style="shape=umlLifeline;perimeter=lifelinePerimeter;whiteSpace=wrap;html=1;container=0;dropTarget=0;collapsible=0;recursiveResize=0;outlineConnect=0;portConstraint=eastwest;newEdgeStyle={&quot;edgeStyle&quot;:&quot;elbowEdgeStyle&quot;,&quot;elbow&quot;:&quot;vertical&quot;,&quot;curved&quot;:0,&quot;rounded&quot;:0};" vertex="1" parent="1">
          <mxGeometry x="375" y="420" width="100" height="300" as="geometry" />
        </mxCell>
        <mxCell id="F8OSvD6U9JMB6-py82-F-23" value="" style="html=1;points=[];perimeter=orthogonalPerimeter;outlineConnect=0;targetShapes=umlLifeline;portConstraint=eastwest;newEdgeStyle={&quot;edgeStyle&quot;:&quot;elbowEdgeStyle&quot;,&quot;elbow&quot;:&quot;vertical&quot;,&quot;curved&quot;:0,&quot;rounded&quot;:0};" vertex="1" parent="F8OSvD6U9JMB6-py82-F-22">
          <mxGeometry x="45" y="80" width="10" height="170" as="geometry" />
        </mxCell>
        <mxCell id="F8OSvD6U9JMB6-py82-F-24" value="Requête HTTP&amp;nbsp;" style="html=1;verticalAlign=bottom;endArrow=block;edgeStyle=elbowEdgeStyle;elbow=vertical;curved=0;rounded=0;" edge="1" parent="1" source="F8OSvD6U9JMB6-py82-F-20" target="F8OSvD6U9JMB6-py82-F-23">
          <mxGeometry relative="1" as="geometry">
            <mxPoint x="195" y="510" as="sourcePoint" />
            <Array as="points">
              <mxPoint x="180" y="500" />
            </Array>
          </mxGeometry>
        </mxCell>
        <mxCell id="F8OSvD6U9JMB6-py82-F-25" value="Réponse HTTP" style="html=1;verticalAlign=bottom;endArrow=block;edgeStyle=elbowEdgeStyle;elbow=vertical;curved=0;rounded=0;" edge="1" parent="1" source="F8OSvD6U9JMB6-py82-F-23" target="F8OSvD6U9JMB6-py82-F-21">
          <mxGeometry relative="1" as="geometry">
            <mxPoint x="175" y="540" as="sourcePoint" />
            <Array as="points">
              <mxPoint x="190" y="560" />
            </Array>
          </mxGeometry>
        </mxCell>
        <mxCell id="F8OSvD6U9JMB6-py82-F-26" value="Base de données" style="shape=umlLifeline;perimeter=lifelinePerimeter;whiteSpace=wrap;html=1;container=0;dropTarget=0;collapsible=0;recursiveResize=0;outlineConnect=0;portConstraint=eastwest;newEdgeStyle={&quot;edgeStyle&quot;:&quot;elbowEdgeStyle&quot;,&quot;elbow&quot;:&quot;vertical&quot;,&quot;curved&quot;:0,&quot;rounded&quot;:0};" vertex="1" parent="1">
          <mxGeometry x="640" y="420" width="100" height="300" as="geometry" />
        </mxCell>
        <mxCell id="F8OSvD6U9JMB6-py82-F-27" value="" style="html=1;points=[];perimeter=orthogonalPerimeter;outlineConnect=0;targetShapes=umlLifeline;portConstraint=eastwest;newEdgeStyle={&quot;edgeStyle&quot;:&quot;elbowEdgeStyle&quot;,&quot;elbow&quot;:&quot;vertical&quot;,&quot;curved&quot;:0,&quot;rounded&quot;:0};" vertex="1" parent="F8OSvD6U9JMB6-py82-F-26">
          <mxGeometry x="45" y="80" width="10" height="170" as="geometry" />
        </mxCell>
        <mxCell id="F8OSvD6U9JMB6-py82-F-28" value="" style="html=1;verticalAlign=bottom;endArrow=block;edgeStyle=elbowEdgeStyle;elbow=vertical;curved=0;rounded=0;" edge="1" parent="1">
          <mxGeometry relative="1" as="geometry">
            <mxPoint x="85" y="502" as="sourcePoint" />
            <Array as="points">
              <mxPoint x="-50" y="502" />
              <mxPoint x="-60" y="462" />
              <mxPoint x="180" y="482" />
            </Array>
            <mxPoint x="80" y="502" as="targetPoint" />
          </mxGeometry>
        </mxCell>
        <mxCell id="F8OSvD6U9JMB6-py82-F-29" value="&lt;font style=&quot;font-size: 11px;&quot;&gt;Connexion utilisateur&lt;/font&gt;" style="text;html=1;align=center;verticalAlign=middle;resizable=0;points=[];autosize=1;strokeColor=none;fillColor=none;" vertex="1" parent="1">
          <mxGeometry x="-55" y="480" width="130" height="30" as="geometry" />
        </mxCell>
        <mxCell id="F8OSvD6U9JMB6-py82-F-30" value="Actor" style="shape=umlActor;verticalLabelPosition=bottom;verticalAlign=top;html=1;outlineConnect=0;" vertex="1" parent="1">
          <mxGeometry x="-80" y="410" width="30" height="60" as="geometry" />
        </mxCell>
        <mxCell id="F8OSvD6U9JMB6-py82-F-31" value="" style="rounded=0;whiteSpace=wrap;html=1;" vertex="1" parent="1">
          <mxGeometry x="-70" y="490" width="10" height="180" as="geometry" />
        </mxCell>
        <mxCell id="F8OSvD6U9JMB6-py82-F-32" value="&lt;font style=&quot;font-size: 11px;&quot;&gt;Vérification données utilisateur&lt;/font&gt;" style="text;html=1;align=center;verticalAlign=middle;resizable=0;points=[];autosize=1;strokeColor=none;fillColor=none;" vertex="1" parent="1">
          <mxGeometry x="465" y="503" width="170" height="30" as="geometry" />
        </mxCell>
        <mxCell id="F8OSvD6U9JMB6-py82-F-33" value="" style="endArrow=classic;startArrow=classic;html=1;rounded=0;" edge="1" parent="1" source="F8OSvD6U9JMB6-py82-F-22" target="F8OSvD6U9JMB6-py82-F-26">
          <mxGeometry width="50" height="50" relative="1" as="geometry">
            <mxPoint x="540" y="600" as="sourcePoint" />
            <mxPoint x="590" y="550" as="targetPoint" />
            <Array as="points">
              <mxPoint x="520" y="530" />
            </Array>
          </mxGeometry>
        </mxCell>
        <mxCell id="F8OSvD6U9JMB6-py82-F-35" value="" style="endArrow=classic;html=1;rounded=0;entryX=1.4;entryY=0.317;entryDx=0;entryDy=0;entryPerimeter=0;" edge="1" parent="1">
          <mxGeometry width="50" height="50" relative="1" as="geometry">
            <mxPoint x="89.5" y="595.06" as="sourcePoint" />
            <mxPoint x="-56" y="595.06" as="targetPoint" />
          </mxGeometry>
        </mxCell>
        <mxCell id="F8OSvD6U9JMB6-py82-F-36" value="&lt;font style=&quot;font-size: 11px;&quot;&gt;Connexion OK&lt;/font&gt;" style="text;html=1;align=center;verticalAlign=middle;resizable=0;points=[];autosize=1;strokeColor=none;fillColor=none;" vertex="1" parent="1">
          <mxGeometry x="-40" y="570" width="100" height="30" as="geometry" />
        </mxCell>
        <mxCell id="F8OSvD6U9JMB6-py82-F-37" value="" style="endArrow=classic;html=1;rounded=0;entryX=1;entryY=0.5;entryDx=0;entryDy=0;" edge="1" parent="1">
          <mxGeometry width="50" height="50" relative="1" as="geometry">
            <mxPoint x="89.5" y="223" as="sourcePoint" />
            <mxPoint x="-60" y="223" as="targetPoint" />
          </mxGeometry>
        </mxCell>
        <mxCell id="F8OSvD6U9JMB6-py82-F-38" value="&lt;font style=&quot;font-size: 11px;&quot;&gt;Création utilisateur OK&lt;/font&gt;" style="text;html=1;align=center;verticalAlign=middle;resizable=0;points=[];autosize=1;strokeColor=none;fillColor=none;" vertex="1" parent="1">
          <mxGeometry x="-50" y="190" width="130" height="30" as="geometry" />
        </mxCell>
        <mxCell id="F8OSvD6U9JMB6-py82-F-39" value="" style="endArrow=none;html=1;rounded=0;" edge="1" parent="1">
          <mxGeometry width="50" height="50" relative="1" as="geometry">
            <mxPoint x="-140" y="360" as="sourcePoint" />
            <mxPoint x="820" y="360" as="targetPoint" />
          </mxGeometry>
        </mxCell>
      </root>
    </mxGraphModel>
  </diagram>
</mxfile>
